<mxfile host="app.diagrams.net" modified="2021-11-07T11:22:18.168Z" agent="5.0 (Macintosh; Intel Mac OS X 10_15_7) AppleWebKit/537.36 (KHTML, like Gecko) Chrome/93.0.4577.82 Safari/537.36" etag="qhawOmzsEPBbkF-8jP5r" version="15.6.6" type="github">
  <diagram id="R2lEEEUBdFMjLlhIrx00" name="Page-1">
    <mxGraphModel dx="2365" dy="1473" grid="0" gridSize="10" guides="1" tooltips="1" connect="1" arrows="1" fold="1" page="1" pageScale="1" pageWidth="850" pageHeight="1100" math="0" shadow="0" extFonts="Permanent Marker^https://fonts.googleapis.com/css?family=Permanent+Marker">
      <root>
        <mxCell id="0" />
        <mxCell id="1" parent="0" />
        <mxCell id="j5J3xBHVAEixcrVTz0q9-1" value="应用层&lt;br&gt;(DNS, HTTP, SMTP, IMAP等)" style="rounded=0;whiteSpace=wrap;html=1;fillColor=default;strokeColor=default;fontColor=default;" vertex="1" parent="1">
          <mxGeometry x="560" y="220" width="200" height="50" as="geometry" />
        </mxCell>
        <mxCell id="j5J3xBHVAEixcrVTz0q9-3" value="运输层&lt;br&gt;（TCP, UDP, ARQ等）" style="rounded=0;whiteSpace=wrap;html=1;fillColor=default;strokeColor=default;fontColor=default;" vertex="1" parent="1">
          <mxGeometry x="560" y="290" width="200" height="50" as="geometry" />
        </mxCell>
        <mxCell id="j5J3xBHVAEixcrVTz0q9-5" value="" style="shape=parallelogram;perimeter=parallelogramPerimeter;whiteSpace=wrap;html=1;fixedSize=1;fontColor=default;strokeColor=default;fillColor=default;" vertex="1" parent="1">
          <mxGeometry x="560" y="200" width="220" height="20" as="geometry" />
        </mxCell>
        <mxCell id="j5J3xBHVAEixcrVTz0q9-6" value="网际层&lt;br&gt;(ICMP)" style="rounded=0;whiteSpace=wrap;html=1;fillColor=default;strokeColor=default;fontColor=default;" vertex="1" parent="1">
          <mxGeometry x="560" y="370" width="200" height="50" as="geometry" />
        </mxCell>
        <mxCell id="j5J3xBHVAEixcrVTz0q9-7" value="子网层" style="rounded=0;whiteSpace=wrap;html=1;fillColor=default;strokeColor=default;fontColor=default;" vertex="1" parent="1">
          <mxGeometry x="560" y="440" width="200" height="50" as="geometry" />
        </mxCell>
        <mxCell id="j5J3xBHVAEixcrVTz0q9-8" value="应用层" style="rounded=0;whiteSpace=wrap;html=1;fillColor=default;strokeColor=default;fontColor=default;" vertex="1" parent="1">
          <mxGeometry x="930" y="220" width="200" height="50" as="geometry" />
        </mxCell>
        <mxCell id="j5J3xBHVAEixcrVTz0q9-9" value="运输层" style="rounded=0;whiteSpace=wrap;html=1;fillColor=default;strokeColor=default;fontColor=default;" vertex="1" parent="1">
          <mxGeometry x="930" y="290" width="200" height="50" as="geometry" />
        </mxCell>
        <mxCell id="j5J3xBHVAEixcrVTz0q9-10" value="" style="shape=parallelogram;perimeter=parallelogramPerimeter;whiteSpace=wrap;html=1;fixedSize=1;fontColor=default;strokeColor=default;fillColor=default;" vertex="1" parent="1">
          <mxGeometry x="930" y="200" width="220" height="20" as="geometry" />
        </mxCell>
        <mxCell id="j5J3xBHVAEixcrVTz0q9-11" value="网际层" style="rounded=0;whiteSpace=wrap;html=1;fillColor=default;strokeColor=default;fontColor=default;" vertex="1" parent="1">
          <mxGeometry x="930" y="370" width="200" height="50" as="geometry" />
        </mxCell>
        <mxCell id="j5J3xBHVAEixcrVTz0q9-12" value="子网层" style="rounded=0;whiteSpace=wrap;html=1;fillColor=default;strokeColor=default;fontColor=default;" vertex="1" parent="1">
          <mxGeometry x="930" y="440" width="200" height="50" as="geometry" />
        </mxCell>
        <mxCell id="j5J3xBHVAEixcrVTz0q9-15" value="" style="shape=flexArrow;endArrow=classic;html=1;rounded=0;fontColor=default;strokeColor=default;labelBackgroundColor=default;fillColor=default;" edge="1" parent="1">
          <mxGeometry width="50" height="50" relative="1" as="geometry">
            <mxPoint x="766" y="160" as="sourcePoint" />
            <mxPoint x="920" y="160" as="targetPoint" />
            <Array as="points">
              <mxPoint x="766" y="500" />
              <mxPoint x="920" y="500" />
            </Array>
          </mxGeometry>
        </mxCell>
        <mxCell id="j5J3xBHVAEixcrVTz0q9-16" value="应用进程" style="whiteSpace=wrap;html=1;fontColor=default;strokeColor=default;fillColor=default;" vertex="1" parent="1">
          <mxGeometry x="690" y="100" width="120" height="60" as="geometry" />
        </mxCell>
        <mxCell id="j5J3xBHVAEixcrVTz0q9-17" value="应用进程" style="whiteSpace=wrap;html=1;fontColor=default;strokeColor=default;fillColor=default;" vertex="1" parent="1">
          <mxGeometry x="880" y="100" width="120" height="60" as="geometry" />
        </mxCell>
        <mxCell id="j5J3xBHVAEixcrVTz0q9-19" value="" style="verticalLabelPosition=bottom;html=1;verticalAlign=top;align=center;strokeColor=none;fillColor=#00BEF2;shape=mxgraph.azure.mobile;pointerEvents=1;fontColor=default;" vertex="1" parent="1">
          <mxGeometry x="141.5" y="610" width="35" height="50" as="geometry" />
        </mxCell>
        <mxCell id="j5J3xBHVAEixcrVTz0q9-20" value="" style="sketch=0;pointerEvents=1;shadow=0;dashed=0;html=1;strokeColor=none;fillColor=#505050;labelPosition=center;verticalLabelPosition=bottom;verticalAlign=top;outlineConnect=0;align=center;shape=mxgraph.office.devices.mac_client;fontColor=default;" vertex="1" parent="1">
          <mxGeometry x="242" y="640" width="58" height="48" as="geometry" />
        </mxCell>
        <mxCell id="j5J3xBHVAEixcrVTz0q9-21" value="" style="shape=mxgraph.signs.tech.computer;html=1;pointerEvents=1;fillColor=#000000;strokeColor=none;verticalLabelPosition=bottom;verticalAlign=top;align=center;fontColor=default;" vertex="1" parent="1">
          <mxGeometry x="110" y="730" width="98" height="98" as="geometry" />
        </mxCell>
        <mxCell id="j5J3xBHVAEixcrVTz0q9-22" value="" style="verticalLabelPosition=bottom;html=1;verticalAlign=top;align=center;shape=mxgraph.floorplan.laptop;fontColor=default;strokeColor=default;fillColor=default;" vertex="1" parent="1">
          <mxGeometry x="240" y="533" width="40" height="35" as="geometry" />
        </mxCell>
        <mxCell id="j5J3xBHVAEixcrVTz0q9-23" value="" style="sketch=0;points=[[0.015,0.015,0],[0.985,0.015,0],[0.985,0.985,0],[0.015,0.985,0],[0.25,0,0],[0.5,0,0],[0.75,0,0],[1,0.25,0],[1,0.5,0],[1,0.75,0],[0.75,1,0],[0.5,1,0],[0.25,1,0],[0,0.75,0],[0,0.5,0],[0,0.25,0]];verticalLabelPosition=bottom;html=1;verticalAlign=top;aspect=fixed;align=center;pointerEvents=1;shape=mxgraph.cisco19.cell_phone;fillColor=#005073;strokeColor=none;fontColor=default;" vertex="1" parent="1">
          <mxGeometry x="380" y="568" width="25" height="50" as="geometry" />
        </mxCell>
        <mxCell id="j5J3xBHVAEixcrVTz0q9-24" value="" style="verticalLabelPosition=bottom;sketch=0;aspect=fixed;html=1;verticalAlign=top;strokeColor=none;align=center;outlineConnect=0;shape=mxgraph.citrix.cell_phone;fontColor=default;fillColor=default;" vertex="1" parent="1">
          <mxGeometry x="300" y="760" width="25" height="60" as="geometry" />
        </mxCell>
        <mxCell id="j5J3xBHVAEixcrVTz0q9-26" value="" style="verticalLabelPosition=bottom;html=1;verticalAlign=top;align=center;strokeColor=none;fillColor=#00BEF2;shape=mxgraph.azure.laptop;pointerEvents=1;fontColor=default;" vertex="1" parent="1">
          <mxGeometry x="420" y="764" width="50" height="30" as="geometry" />
        </mxCell>
        <mxCell id="j5J3xBHVAEixcrVTz0q9-30" value="" style="endArrow=none;html=1;rounded=0;labelBackgroundColor=default;fontColor=default;strokeColor=default;fillColor=default;exitX=0.837;exitY=0;exitDx=0;exitDy=0;exitPerimeter=0;" edge="1" parent="1" source="j5J3xBHVAEixcrVTz0q9-21" target="j5J3xBHVAEixcrVTz0q9-20">
          <mxGeometry width="50" height="50" relative="1" as="geometry">
            <mxPoint x="250" y="760" as="sourcePoint" />
            <mxPoint x="300" y="710" as="targetPoint" />
          </mxGeometry>
        </mxCell>
        <mxCell id="j5J3xBHVAEixcrVTz0q9-31" value="" style="endArrow=none;html=1;rounded=0;labelBackgroundColor=default;fontColor=default;strokeColor=default;fillColor=default;" edge="1" parent="1" source="j5J3xBHVAEixcrVTz0q9-24">
          <mxGeometry width="50" height="50" relative="1" as="geometry">
            <mxPoint x="370" y="720" as="sourcePoint" />
            <mxPoint x="430" y="760" as="targetPoint" />
            <Array as="points">
              <mxPoint x="390" y="620" />
            </Array>
          </mxGeometry>
        </mxCell>
        <mxCell id="j5J3xBHVAEixcrVTz0q9-33" value="" style="endArrow=none;html=1;rounded=0;labelBackgroundColor=default;fontColor=default;strokeColor=default;fillColor=default;exitX=1.025;exitY=0.8;exitDx=0;exitDy=0;exitPerimeter=0;" edge="1" parent="1" source="j5J3xBHVAEixcrVTz0q9-22" target="j5J3xBHVAEixcrVTz0q9-20">
          <mxGeometry width="50" height="50" relative="1" as="geometry">
            <mxPoint x="450" y="770" as="sourcePoint" />
            <mxPoint x="500" y="720" as="targetPoint" />
            <Array as="points">
              <mxPoint x="380" y="600" />
            </Array>
          </mxGeometry>
        </mxCell>
        <mxCell id="j5J3xBHVAEixcrVTz0q9-34" value="" style="endArrow=none;html=1;rounded=0;labelBackgroundColor=default;fontColor=default;strokeColor=default;fillColor=default;entryX=-0.075;entryY=0.514;entryDx=0;entryDy=0;entryPerimeter=0;exitX=0.97;exitY=0.02;exitDx=0;exitDy=0;exitPerimeter=0;" edge="1" parent="1" source="j5J3xBHVAEixcrVTz0q9-19" target="j5J3xBHVAEixcrVTz0q9-22">
          <mxGeometry width="50" height="50" relative="1" as="geometry">
            <mxPoint x="450" y="770" as="sourcePoint" />
            <mxPoint x="500" y="720" as="targetPoint" />
          </mxGeometry>
        </mxCell>
        <mxCell id="j5J3xBHVAEixcrVTz0q9-35" value="" style="endArrow=none;html=1;rounded=0;labelBackgroundColor=default;fontColor=default;strokeColor=default;fillColor=default;entryX=1;entryY=0.5;entryDx=0;entryDy=0;entryPerimeter=0;" edge="1" parent="1" source="j5J3xBHVAEixcrVTz0q9-20" target="j5J3xBHVAEixcrVTz0q9-19">
          <mxGeometry width="50" height="50" relative="1" as="geometry">
            <mxPoint x="450" y="770" as="sourcePoint" />
            <mxPoint x="500" y="720" as="targetPoint" />
          </mxGeometry>
        </mxCell>
        <mxCell id="j5J3xBHVAEixcrVTz0q9-36" value="" style="endArrow=none;html=1;rounded=0;labelBackgroundColor=default;fontColor=default;strokeColor=default;fillColor=default;exitX=0.92;exitY=0.5;exitDx=0;exitDy=0;exitPerimeter=0;" edge="1" parent="1" source="j5J3xBHVAEixcrVTz0q9-26">
          <mxGeometry width="50" height="50" relative="1" as="geometry">
            <mxPoint x="450" y="770" as="sourcePoint" />
            <mxPoint x="550" y="779" as="targetPoint" />
          </mxGeometry>
        </mxCell>
        <mxCell id="j5J3xBHVAEixcrVTz0q9-37" value="" style="endArrow=none;html=1;rounded=0;labelBackgroundColor=default;fontColor=default;strokeColor=default;fillColor=default;" edge="1" parent="1">
          <mxGeometry width="50" height="50" relative="1" as="geometry">
            <mxPoint x="70" y="610" as="sourcePoint" />
            <mxPoint x="141.5" y="630" as="targetPoint" />
          </mxGeometry>
        </mxCell>
        <mxCell id="j5J3xBHVAEixcrVTz0q9-38" value="" style="endArrow=none;html=1;rounded=0;labelBackgroundColor=default;fontColor=default;strokeColor=default;fillColor=default;entryX=1;entryY=0.5;entryDx=0;entryDy=0;entryPerimeter=0;" edge="1" parent="1" target="j5J3xBHVAEixcrVTz0q9-23">
          <mxGeometry width="50" height="50" relative="1" as="geometry">
            <mxPoint x="480" y="550" as="sourcePoint" />
            <mxPoint x="500" y="720" as="targetPoint" />
          </mxGeometry>
        </mxCell>
        <mxCell id="j5J3xBHVAEixcrVTz0q9-39" value="" style="endArrow=none;html=1;rounded=0;labelBackgroundColor=default;fontColor=default;strokeColor=default;fillColor=default;" edge="1" parent="1" target="j5J3xBHVAEixcrVTz0q9-21">
          <mxGeometry width="50" height="50" relative="1" as="geometry">
            <mxPoint x="30" y="790" as="sourcePoint" />
            <mxPoint x="500" y="720" as="targetPoint" />
          </mxGeometry>
        </mxCell>
        <mxCell id="j5J3xBHVAEixcrVTz0q9-40" value="" style="endArrow=none;html=1;rounded=0;labelBackgroundColor=default;fontColor=default;strokeColor=default;fillColor=default;entryX=1;entryY=0.327;entryDx=0;entryDy=0;entryPerimeter=0;" edge="1" parent="1" target="j5J3xBHVAEixcrVTz0q9-21">
          <mxGeometry width="50" height="50" relative="1" as="geometry">
            <mxPoint x="290" y="790" as="sourcePoint" />
            <mxPoint x="500" y="720" as="targetPoint" />
          </mxGeometry>
        </mxCell>
        <mxCell id="j5J3xBHVAEixcrVTz0q9-41" value="" style="endArrow=none;html=1;rounded=0;labelBackgroundColor=default;fontColor=default;strokeColor=default;fillColor=default;" edge="1" parent="1" target="j5J3xBHVAEixcrVTz0q9-24">
          <mxGeometry width="50" height="50" relative="1" as="geometry">
            <mxPoint x="360" y="890" as="sourcePoint" />
            <mxPoint x="500" y="720" as="targetPoint" />
          </mxGeometry>
        </mxCell>
        <mxCell id="j5J3xBHVAEixcrVTz0q9-42" value="" style="endArrow=none;html=1;rounded=0;labelBackgroundColor=default;fontColor=default;strokeColor=default;fillColor=default;entryX=0.52;entryY=0.939;entryDx=0;entryDy=0;entryPerimeter=0;" edge="1" parent="1" target="j5J3xBHVAEixcrVTz0q9-21">
          <mxGeometry width="50" height="50" relative="1" as="geometry">
            <mxPoint x="170" y="900" as="sourcePoint" />
            <mxPoint x="335" y="826.3157894736842" as="targetPoint" />
          </mxGeometry>
        </mxCell>
        <mxCell id="j5J3xBHVAEixcrVTz0q9-43" value="" style="endArrow=none;html=1;rounded=0;labelBackgroundColor=default;fontColor=default;strokeColor=default;fillColor=default;" edge="1" parent="1" target="j5J3xBHVAEixcrVTz0q9-22">
          <mxGeometry width="50" height="50" relative="1" as="geometry">
            <mxPoint x="250" y="480" as="sourcePoint" />
            <mxPoint x="170.96000000000004" y="832.0219999999999" as="targetPoint" />
          </mxGeometry>
        </mxCell>
        <mxCell id="j5J3xBHVAEixcrVTz0q9-44" value="" style="endArrow=none;html=1;rounded=0;labelBackgroundColor=default;fontColor=default;strokeColor=default;fillColor=default;exitX=0.5;exitY=1;exitDx=0;exitDy=0;exitPerimeter=0;" edge="1" parent="1" source="j5J3xBHVAEixcrVTz0q9-19" target="j5J3xBHVAEixcrVTz0q9-21">
          <mxGeometry width="50" height="50" relative="1" as="geometry">
            <mxPoint x="260" y="490" as="sourcePoint" />
            <mxPoint x="267.51773049645385" y="543" as="targetPoint" />
          </mxGeometry>
        </mxCell>
        <mxCell id="j5J3xBHVAEixcrVTz0q9-45" value="" style="ellipse;shape=cloud;whiteSpace=wrap;html=1;labelBackgroundColor=default;fontColor=default;strokeColor=default;fillColor=default;" vertex="1" parent="1">
          <mxGeometry x="790" y="470" width="120" height="80" as="geometry" />
        </mxCell>
        <mxCell id="j5J3xBHVAEixcrVTz0q9-54" style="edgeStyle=orthogonalEdgeStyle;rounded=0;orthogonalLoop=1;jettySize=auto;html=1;labelBackgroundColor=default;fontColor=default;strokeColor=default;fillColor=default;" edge="1" parent="1">
          <mxGeometry relative="1" as="geometry">
            <mxPoint x="1232.85" y="754" as="targetPoint" />
            <mxPoint x="972.85" y="754" as="sourcePoint" />
          </mxGeometry>
        </mxCell>
        <mxCell id="j5J3xBHVAEixcrVTz0q9-51" value="" style="points=[];aspect=fixed;html=1;align=center;shadow=0;dashed=0;image;image=img/lib/allied_telesis/computer_and_terminals/Personal_Computer.svg;labelBackgroundColor=default;fontColor=default;strokeColor=default;fillColor=default;flipV=1;direction=west;" vertex="1" parent="1">
          <mxGeometry x="900" y="720" width="82.85" height="112.28" as="geometry" />
        </mxCell>
        <mxCell id="j5J3xBHVAEixcrVTz0q9-55" style="edgeStyle=orthogonalEdgeStyle;rounded=0;orthogonalLoop=1;jettySize=auto;html=1;entryX=0;entryY=0.552;entryDx=0;entryDy=0;entryPerimeter=0;labelBackgroundColor=default;fontColor=default;strokeColor=default;fillColor=default;" edge="1" parent="1" source="j5J3xBHVAEixcrVTz0q9-53" target="j5J3xBHVAEixcrVTz0q9-51">
          <mxGeometry relative="1" as="geometry">
            <Array as="points">
              <mxPoint x="1142.85" y="782" />
              <mxPoint x="1142.85" y="782" />
            </Array>
          </mxGeometry>
        </mxCell>
        <mxCell id="j5J3xBHVAEixcrVTz0q9-53" value="" style="sketch=0;shadow=0;dashed=0;html=1;strokeColor=default;fillColor=#505050;labelPosition=center;verticalLabelPosition=bottom;verticalAlign=top;outlineConnect=0;align=center;shape=mxgraph.office.databases.database_server_green;labelBackgroundColor=default;fontColor=default;" vertex="1" parent="1">
          <mxGeometry x="1242.85" y="720" width="113" height="120" as="geometry" />
        </mxCell>
        <mxCell id="j5J3xBHVAEixcrVTz0q9-58" value="客户端" style="text;html=1;strokeColor=none;fillColor=none;align=center;verticalAlign=middle;whiteSpace=wrap;rounded=0;labelBackgroundColor=default;fontColor=default;" vertex="1" parent="1">
          <mxGeometry x="911.42" y="680" width="60" height="30" as="geometry" />
        </mxCell>
        <mxCell id="j5J3xBHVAEixcrVTz0q9-59" value="服务器" style="text;html=1;align=center;verticalAlign=middle;resizable=0;points=[];autosize=1;strokeColor=none;fillColor=none;fontColor=default;" vertex="1" parent="1">
          <mxGeometry x="1259" y="686" width="46" height="18" as="geometry" />
        </mxCell>
        <mxCell id="j5J3xBHVAEixcrVTz0q9-60" value="运输层&lt;br&gt;(TCP)" style="rounded=0;whiteSpace=wrap;html=1;labelBackgroundColor=default;fontColor=default;strokeColor=default;fillColor=default;" vertex="1" parent="1">
          <mxGeometry x="1803" y="256" width="120" height="60" as="geometry" />
        </mxCell>
        <mxCell id="j5J3xBHVAEixcrVTz0q9-61" value="运输层&lt;br&gt;" style="rounded=0;whiteSpace=wrap;html=1;labelBackgroundColor=default;fontColor=default;strokeColor=default;fillColor=default;" vertex="1" parent="1">
          <mxGeometry x="2195" y="249" width="120" height="60" as="geometry" />
        </mxCell>
        <mxCell id="j5J3xBHVAEixcrVTz0q9-62" value="" style="endArrow=none;html=1;rounded=0;dashed=1;dashPattern=1 2;labelBackgroundColor=default;fontColor=default;strokeColor=default;fillColor=default;" edge="1" parent="1">
          <mxGeometry relative="1" as="geometry">
            <mxPoint x="1921" y="285" as="sourcePoint" />
            <mxPoint x="2193" y="285" as="targetPoint" />
          </mxGeometry>
        </mxCell>
        <mxCell id="j5J3xBHVAEixcrVTz0q9-64" value="SYN" style="swimlane;fontStyle=0;childLayout=stackLayout;horizontal=1;startSize=26;fillColor=none;horizontalStack=0;resizeParent=1;resizeParentMax=0;resizeLast=0;collapsible=1;marginBottom=0;labelBackgroundColor=default;fontColor=default;strokeColor=default;" vertex="1" parent="1">
          <mxGeometry x="1890" y="440" width="69" height="52" as="geometry">
            <mxRectangle x="1312" y="298" width="52" height="26" as="alternateBounds" />
          </mxGeometry>
        </mxCell>
        <mxCell id="j5J3xBHVAEixcrVTz0q9-65" value="1" style="text;strokeColor=default;fillColor=none;align=left;verticalAlign=top;spacingLeft=4;spacingRight=4;overflow=hidden;rotatable=0;points=[[0,0.5],[1,0.5]];portConstraint=eastwest;labelBackgroundColor=default;fontColor=default;" vertex="1" parent="j5J3xBHVAEixcrVTz0q9-64">
          <mxGeometry y="26" width="69" height="26" as="geometry" />
        </mxCell>
        <mxCell id="j5J3xBHVAEixcrVTz0q9-77" value="SYN" style="swimlane;fontStyle=0;childLayout=stackLayout;horizontal=1;startSize=26;fillColor=none;horizontalStack=0;resizeParent=1;resizeParentMax=0;resizeLast=0;collapsible=1;marginBottom=0;labelBackgroundColor=default;fontColor=default;strokeColor=default;" vertex="1" parent="1">
          <mxGeometry x="2053" y="574" width="69" height="52" as="geometry">
            <mxRectangle x="1312" y="298" width="52" height="26" as="alternateBounds" />
          </mxGeometry>
        </mxCell>
        <mxCell id="j5J3xBHVAEixcrVTz0q9-78" value="1" style="text;strokeColor=default;fillColor=none;align=left;verticalAlign=top;spacingLeft=4;spacingRight=4;overflow=hidden;rotatable=0;points=[[0,0.5],[1,0.5]];portConstraint=eastwest;labelBackgroundColor=default;fontColor=default;" vertex="1" parent="j5J3xBHVAEixcrVTz0q9-77">
          <mxGeometry y="26" width="69" height="26" as="geometry" />
        </mxCell>
        <mxCell id="j5J3xBHVAEixcrVTz0q9-68" value="ACK" style="swimlane;fontStyle=0;childLayout=stackLayout;horizontal=1;startSize=26;fillColor=none;horizontalStack=0;resizeParent=1;resizeParentMax=0;resizeLast=0;collapsible=1;marginBottom=0;labelBackgroundColor=default;fontColor=default;strokeColor=default;" vertex="1" parent="1">
          <mxGeometry x="1959" y="440" width="65" height="52" as="geometry" />
        </mxCell>
        <mxCell id="j5J3xBHVAEixcrVTz0q9-71" value="0" style="text;strokeColor=default;fillColor=none;align=left;verticalAlign=top;spacingLeft=4;spacingRight=4;overflow=hidden;rotatable=0;points=[[0,0.5],[1,0.5]];portConstraint=eastwest;labelBackgroundColor=default;fontColor=default;" vertex="1" parent="j5J3xBHVAEixcrVTz0q9-68">
          <mxGeometry y="26" width="65" height="26" as="geometry" />
        </mxCell>
        <mxCell id="j5J3xBHVAEixcrVTz0q9-79" value="ACK" style="swimlane;fontStyle=0;childLayout=stackLayout;horizontal=1;startSize=26;fillColor=none;horizontalStack=0;resizeParent=1;resizeParentMax=0;resizeLast=0;collapsible=1;marginBottom=0;labelBackgroundColor=default;fontColor=default;strokeColor=default;" vertex="1" parent="1">
          <mxGeometry x="2122" y="574" width="65" height="52" as="geometry" />
        </mxCell>
        <mxCell id="j5J3xBHVAEixcrVTz0q9-80" value="0" style="text;strokeColor=default;fillColor=none;align=left;verticalAlign=top;spacingLeft=4;spacingRight=4;overflow=hidden;rotatable=0;points=[[0,0.5],[1,0.5]];portConstraint=eastwest;labelBackgroundColor=default;fontColor=default;" vertex="1" parent="j5J3xBHVAEixcrVTz0q9-79">
          <mxGeometry y="26" width="65" height="26" as="geometry" />
        </mxCell>
        <mxCell id="j5J3xBHVAEixcrVTz0q9-73" value="顺序号" style="swimlane;fontStyle=0;childLayout=stackLayout;horizontal=1;startSize=26;fillColor=none;horizontalStack=0;resizeParent=1;resizeParentMax=0;resizeLast=0;collapsible=1;marginBottom=0;labelBackgroundColor=default;fontColor=default;strokeColor=default;" vertex="1" parent="1">
          <mxGeometry x="2024" y="440" width="66" height="52" as="geometry" />
        </mxCell>
        <mxCell id="j5J3xBHVAEixcrVTz0q9-74" value="x" style="text;strokeColor=default;fillColor=none;align=left;verticalAlign=top;spacingLeft=4;spacingRight=4;overflow=hidden;rotatable=0;points=[[0,0.5],[1,0.5]];portConstraint=eastwest;labelBackgroundColor=default;fontColor=default;" vertex="1" parent="j5J3xBHVAEixcrVTz0q9-73">
          <mxGeometry y="26" width="66" height="26" as="geometry" />
        </mxCell>
        <mxCell id="j5J3xBHVAEixcrVTz0q9-81" value="顺序号" style="swimlane;fontStyle=0;childLayout=stackLayout;horizontal=1;startSize=26;fillColor=none;horizontalStack=0;resizeParent=1;resizeParentMax=0;resizeLast=0;collapsible=1;marginBottom=0;labelBackgroundColor=default;fontColor=default;strokeColor=default;" vertex="1" parent="1">
          <mxGeometry x="2187" y="574" width="66" height="52" as="geometry" />
        </mxCell>
        <mxCell id="j5J3xBHVAEixcrVTz0q9-82" value="y" style="text;strokeColor=default;fillColor=none;align=left;verticalAlign=top;spacingLeft=4;spacingRight=4;overflow=hidden;rotatable=0;points=[[0,0.5],[1,0.5]];portConstraint=eastwest;labelBackgroundColor=default;fontColor=default;" vertex="1" parent="j5J3xBHVAEixcrVTz0q9-81">
          <mxGeometry y="26" width="66" height="26" as="geometry" />
        </mxCell>
        <mxCell id="j5J3xBHVAEixcrVTz0q9-83" value="client" style="whiteSpace=wrap;html=1;labelBackgroundColor=default;fontColor=default;strokeColor=default;fillColor=default;" vertex="1" parent="1">
          <mxGeometry x="1801" y="429" width="74" height="396" as="geometry" />
        </mxCell>
        <mxCell id="j5J3xBHVAEixcrVTz0q9-84" value="serve" style="whiteSpace=wrap;html=1;labelBackgroundColor=default;fontColor=default;strokeColor=default;fillColor=default;" vertex="1" parent="1">
          <mxGeometry x="2327" y="420" width="69" height="396" as="geometry" />
        </mxCell>
        <mxCell id="j5J3xBHVAEixcrVTz0q9-85" value="" style="shape=singleArrow;whiteSpace=wrap;html=1;labelBackgroundColor=default;fontColor=default;strokeColor=default;fillColor=default;" vertex="1" parent="1">
          <mxGeometry x="1875" y="515" width="451" height="24" as="geometry" />
        </mxCell>
        <mxCell id="j5J3xBHVAEixcrVTz0q9-86" value="" style="shape=singleArrow;direction=west;whiteSpace=wrap;html=1;labelBackgroundColor=default;fontColor=default;strokeColor=default;fillColor=default;" vertex="1" parent="1">
          <mxGeometry x="1879" y="626" width="448" height="25" as="geometry" />
        </mxCell>
        <mxCell id="j5J3xBHVAEixcrVTz0q9-87" value="确认号" style="swimlane;fontStyle=0;childLayout=stackLayout;horizontal=1;startSize=26;fillColor=none;horizontalStack=0;resizeParent=1;resizeParentMax=0;resizeLast=0;collapsible=1;marginBottom=0;labelBackgroundColor=default;fontColor=default;strokeColor=default;" vertex="1" parent="1">
          <mxGeometry x="2253" y="574" width="66" height="52" as="geometry" />
        </mxCell>
        <mxCell id="j5J3xBHVAEixcrVTz0q9-88" value="x+1" style="text;strokeColor=default;fillColor=none;align=left;verticalAlign=top;spacingLeft=4;spacingRight=4;overflow=hidden;rotatable=0;points=[[0,0.5],[1,0.5]];portConstraint=eastwest;labelBackgroundColor=default;fontColor=default;" vertex="1" parent="j5J3xBHVAEixcrVTz0q9-87">
          <mxGeometry y="26" width="66" height="26" as="geometry" />
        </mxCell>
        <mxCell id="j5J3xBHVAEixcrVTz0q9-89" value="" style="shape=singleArrow;whiteSpace=wrap;html=1;labelBackgroundColor=default;fontColor=default;strokeColor=default;fillColor=default;" vertex="1" parent="1">
          <mxGeometry x="1875" y="760" width="453" height="29" as="geometry" />
        </mxCell>
        <mxCell id="j5J3xBHVAEixcrVTz0q9-90" value="SYN" style="swimlane;fontStyle=0;childLayout=stackLayout;horizontal=1;startSize=26;fillColor=none;horizontalStack=0;resizeParent=1;resizeParentMax=0;resizeLast=0;collapsible=1;marginBottom=0;labelBackgroundColor=default;fontColor=default;strokeColor=default;" vertex="1" parent="1">
          <mxGeometry x="1891.5" y="708" width="69" height="52" as="geometry">
            <mxRectangle x="1312" y="298" width="52" height="26" as="alternateBounds" />
          </mxGeometry>
        </mxCell>
        <mxCell id="j5J3xBHVAEixcrVTz0q9-91" value="0" style="text;strokeColor=default;fillColor=none;align=left;verticalAlign=top;spacingLeft=4;spacingRight=4;overflow=hidden;rotatable=0;points=[[0,0.5],[1,0.5]];portConstraint=eastwest;labelBackgroundColor=default;fontColor=default;" vertex="1" parent="j5J3xBHVAEixcrVTz0q9-90">
          <mxGeometry y="26" width="69" height="26" as="geometry" />
        </mxCell>
        <mxCell id="j5J3xBHVAEixcrVTz0q9-92" value="ACK" style="swimlane;fontStyle=0;childLayout=stackLayout;horizontal=1;startSize=26;fillColor=none;horizontalStack=0;resizeParent=1;resizeParentMax=0;resizeLast=0;collapsible=1;marginBottom=0;labelBackgroundColor=default;fontColor=default;strokeColor=default;" vertex="1" parent="1">
          <mxGeometry x="1960.5" y="708" width="65" height="52" as="geometry" />
        </mxCell>
        <mxCell id="j5J3xBHVAEixcrVTz0q9-93" value="1" style="text;strokeColor=default;fillColor=none;align=left;verticalAlign=top;spacingLeft=4;spacingRight=4;overflow=hidden;rotatable=0;points=[[0,0.5],[1,0.5]];portConstraint=eastwest;labelBackgroundColor=default;fontColor=default;" vertex="1" parent="j5J3xBHVAEixcrVTz0q9-92">
          <mxGeometry y="26" width="65" height="26" as="geometry" />
        </mxCell>
        <mxCell id="j5J3xBHVAEixcrVTz0q9-94" value="顺序号" style="swimlane;fontStyle=0;childLayout=stackLayout;horizontal=1;startSize=26;fillColor=none;horizontalStack=0;resizeParent=1;resizeParentMax=0;resizeLast=0;collapsible=1;marginBottom=0;labelBackgroundColor=default;fontColor=default;strokeColor=default;" vertex="1" parent="1">
          <mxGeometry x="2025.5" y="708" width="66" height="52" as="geometry" />
        </mxCell>
        <mxCell id="j5J3xBHVAEixcrVTz0q9-95" value="x+1" style="text;strokeColor=default;fillColor=none;align=left;verticalAlign=top;spacingLeft=4;spacingRight=4;overflow=hidden;rotatable=0;points=[[0,0.5],[1,0.5]];portConstraint=eastwest;labelBackgroundColor=default;fontColor=default;" vertex="1" parent="j5J3xBHVAEixcrVTz0q9-94">
          <mxGeometry y="26" width="66" height="26" as="geometry" />
        </mxCell>
        <mxCell id="j5J3xBHVAEixcrVTz0q9-96" value="确认号" style="swimlane;fontStyle=0;childLayout=stackLayout;horizontal=1;startSize=26;fillColor=none;horizontalStack=0;resizeParent=1;resizeParentMax=0;resizeLast=0;collapsible=1;marginBottom=0;labelBackgroundColor=default;fontColor=default;strokeColor=default;" vertex="1" parent="1">
          <mxGeometry x="2091.5" y="708" width="66" height="52" as="geometry" />
        </mxCell>
        <mxCell id="j5J3xBHVAEixcrVTz0q9-97" value="y+1" style="text;strokeColor=default;fillColor=none;align=left;verticalAlign=top;spacingLeft=4;spacingRight=4;overflow=hidden;rotatable=0;points=[[0,0.5],[1,0.5]];portConstraint=eastwest;labelBackgroundColor=default;fontColor=default;" vertex="1" parent="j5J3xBHVAEixcrVTz0q9-96">
          <mxGeometry y="26" width="66" height="26" as="geometry" />
        </mxCell>
        <mxCell id="j5J3xBHVAEixcrVTz0q9-99" value="TCP 三次握手建立可靠连接" style="text;html=1;align=center;verticalAlign=middle;resizable=0;points=[];autosize=1;strokeColor=none;fillColor=none;fontColor=default;" vertex="1" parent="1">
          <mxGeometry x="1830" y="351" width="157" height="18" as="geometry" />
        </mxCell>
      </root>
    </mxGraphModel>
  </diagram>
</mxfile>
